<svg width="14" height="14" viewBox="0 0 14 14" fill="none" xmlns="http://www.w3.org/2000/svg">
<mask id="mask0_1_33" style="mask-type:alpha" maskUnits="userSpaceOnUse" x="0" y="0" width="14" height="14">
<path d="M8.94479 13.75V8.84644H10.6077L10.8559 6.98208H8.94479V5.77469C8.94479 5.22426 9.09424 4.85139 9.89293 4.85139H10.9375V3.13352C10.7611 3.11133 10.144 3.0625 9.44096 3.0625C7.97253 3.0625 6.98019 3.95473 6.98019 5.57494V6.98208H5.3125V8.84644H6.97979L6.97655 13.75H1.375C0.759766 13.75 0.25 13.2402 0.25 12.625V1.375C0.25 0.759766 0.759766 0.25 1.375 0.25H12.625C13.2402 0.25 13.75 0.759766 13.75 1.375V12.625C13.75 13.2402 13.2402 13.75 12.625 13.75H8.94479Z" fill="white"/>
</mask>
<g mask="url(#mask0_1_33)">
<path d="M8.94479 13.75V8.84644H10.6077L10.8559 6.98208H8.94479V5.77469C8.94479 5.22426 9.09424 4.85139 9.89293 4.85139H10.9375V3.13352C10.7611 3.11133 10.144 3.0625 9.44096 3.0625C7.97253 3.0625 6.98019 3.95473 6.98019 5.57494V6.98208H5.3125V8.84644H6.97979L6.97655 13.75H1.375C0.759766 13.75 0.25 13.2402 0.25 12.625V1.375C0.25 0.759766 0.759766 0.25 1.375 0.25H12.625C13.2402 0.25 13.75 0.759766 13.75 1.375V12.625C13.75 13.2402 13.2402 13.75 12.625 13.75H8.94479Z" fill="white"/>
</g>
</svg>
