<svg width="14" height="14" viewBox="0 0 14 14" fill="none" xmlns="http://www.w3.org/2000/svg">
<path fill-rule="evenodd" clip-rule="evenodd" d="M0.25 4.1457C0.25 1.99416 1.99415 0.25 4.1457 0.25H9.8543C12.0058 0.25 13.75 1.99415 13.75 4.1457V9.8543C13.75 12.0058 12.0059 13.75 9.8543 13.75H4.1457C1.99416 13.75 0.25 12.0059 0.25 9.8543V4.1457ZM1.47198 4.26189V9.73811C1.47198 11.2812 2.72107 12.528 4.26189 12.528H9.73811C11.2812 12.528 12.528 11.2789 12.528 9.73811V4.26189C12.528 2.71876 11.2789 1.47198 9.73811 1.47198H4.26189C2.71876 1.47198 1.47198 2.72107 1.47198 4.26189ZM7 10.4332C5.1039 10.4332 3.56681 8.8961 3.56681 7C3.56681 5.1039 5.1039 3.56681 7 3.56681C8.8961 3.56681 10.4332 5.1039 10.4332 7C10.4332 8.8961 8.8961 10.4332 7 10.4332ZM7 9.21121C8.22122 9.21121 9.21121 8.22122 9.21121 7C9.21121 5.77878 8.22122 4.78879 7 4.78879C5.77878 4.78879 4.78879 5.77878 4.78879 7C4.78879 8.22122 5.77878 9.21121 7 9.21121ZM10.5496 4.2069C10.0996 4.2069 9.73491 3.84216 9.73491 3.39224C9.73491 2.94232 10.0996 2.57759 10.5496 2.57759C10.9995 2.57759 11.3642 2.94232 11.3642 3.39224C11.3642 3.84216 10.9995 4.2069 10.5496 4.2069Z" fill="white"/>
</svg>
