<svg width="14" height="14" viewBox="0 0 14 14" fill="none" xmlns="http://www.w3.org/2000/svg">
<mask id="mask0_1_40" style="mask-type:alpha" maskUnits="userSpaceOnUse" x="0" y="0" width="14" height="14">
<path d="M7 0.25C3.27124 0.25 0.25 3.27124 0.25 7C0.25 9.86084 2.02979 12.302 4.54126 13.2864C4.48193 12.7524 4.427 11.9329 4.56323 11.3484C4.68628 10.8232 5.35425 7.99316 5.35425 7.99316C5.35425 7.99316 5.1543 7.58887 5.1543 6.99121C5.1543 6.05298 5.69702 5.35205 6.37378 5.35205C6.94946 5.35205 7.22852 5.78491 7.22852 6.30347C7.22852 6.88354 6.85938 7.74927 6.66821 8.55127C6.51001 9.22363 7.00659 9.77075 7.66797 9.77075C8.86768 9.77075 9.79053 8.50513 9.79053 6.6792C9.79053 5.06421 8.63037 3.93481 6.97144 3.93481C5.05102 3.93481 3.92383 5.37402 3.92383 6.86377C3.92383 7.44385 4.14795 8.06567 4.427 8.40405C4.48193 8.46997 4.48853 8.5293 4.47315 8.59741C4.42041 8.81055 4.30835 9.26978 4.28638 9.36206C4.25562 9.4873 4.1875 9.51367 4.06006 9.45215C3.21631 9.06104 2.68897 7.82837 2.68897 6.8374C2.68897 4.70825 4.23584 2.75269 7.14941 2.75269C9.4917 2.75269 11.311 4.42041 11.311 6.65283C11.311 8.97754 9.84326 10.8496 7.80859 10.8496C7.12524 10.8496 6.48145 10.4958 6.26172 10.0762C6.26172 10.0762 5.92334 11.3638 5.83984 11.6802C5.68823 12.2668 5.27734 13.0007 5.00049 13.449C5.6333 13.6445 6.30347 13.75 7 13.75C10.7288 13.75 13.75 10.7288 13.75 7C13.75 3.27124 10.7288 0.25 7 0.25Z" fill="white"/>
</mask>
<g mask="url(#mask0_1_40)">
<path d="M7 0.25C3.27124 0.25 0.25 3.27124 0.25 7C0.25 9.86084 2.02979 12.302 4.54126 13.2864C4.48193 12.7524 4.427 11.9329 4.56323 11.3484C4.68628 10.8232 5.35425 7.99316 5.35425 7.99316C5.35425 7.99316 5.1543 7.58887 5.1543 6.99121C5.1543 6.05298 5.69702 5.35205 6.37378 5.35205C6.94946 5.35205 7.22852 5.78491 7.22852 6.30347C7.22852 6.88354 6.85938 7.74927 6.66821 8.55127C6.51001 9.22363 7.00659 9.77075 7.66797 9.77075C8.86768 9.77075 9.79053 8.50513 9.79053 6.6792C9.79053 5.06421 8.63037 3.93481 6.97144 3.93481C5.05102 3.93481 3.92383 5.37402 3.92383 6.86377C3.92383 7.44385 4.14795 8.06567 4.427 8.40405C4.48193 8.46997 4.48853 8.5293 4.47315 8.59741C4.42041 8.81055 4.30835 9.26978 4.28638 9.36206C4.25562 9.4873 4.1875 9.51367 4.06006 9.45215C3.21631 9.06104 2.68897 7.82837 2.68897 6.8374C2.68897 4.70825 4.23584 2.75269 7.14941 2.75269C9.4917 2.75269 11.311 4.42041 11.311 6.65283C11.311 8.97754 9.84326 10.8496 7.80859 10.8496C7.12524 10.8496 6.48145 10.4958 6.26172 10.0762C6.26172 10.0762 5.92334 11.3638 5.83984 11.6802C5.68823 12.2668 5.27734 13.0007 5.00049 13.449C5.6333 13.6445 6.30347 13.75 7 13.75C10.7288 13.75 13.75 10.7288 13.75 7C13.75 3.27124 10.7288 0.25 7 0.25Z" fill="white"/>
</g>
</svg>
