<svg width="14" height="12" viewBox="0 0 14 12" fill="none" xmlns="http://www.w3.org/2000/svg">
<path fill-rule="evenodd" clip-rule="evenodd" d="M13.75 1.67606C13.2533 1.89544 12.7195 2.04506 12.1593 2.11088C12.7308 1.76831 13.1701 1.2255 13.3765 0.579187C12.8427 0.895875 12.2493 1.1265 11.6187 1.25194C11.113 0.713625 10.3924 0.375 9.59706 0.375C8.06763 0.375 6.82619 1.61644 6.82619 3.14587C6.82619 3.36356 6.85037 3.5745 6.89875 3.77644C4.59644 3.66225 2.55512 2.55919 1.1905 0.882375C0.950875 1.29131 0.81475 1.76831 0.81475 2.27569C0.81475 3.23587 1.30244 4.08413 2.04719 4.58081C1.59269 4.56506 1.16631 4.44244 0.792813 4.23319C0.792813 4.24669 0.792813 4.25738 0.792813 4.26863C0.792813 5.61131 1.74625 6.73181 3.01412 6.98438C2.78125 7.04794 2.53713 7.08338 2.28456 7.08338C2.10681 7.08338 1.93075 7.06594 1.76369 7.03275C2.11525 8.13356 3.13956 8.93344 4.35006 8.95762C3.40281 9.70012 2.2075 10.1417 0.9115 10.1417C0.687063 10.1417 0.467688 10.1287 0.25 10.1023C1.47625 10.8892 2.93088 11.3482 4.49519 11.3482C9.59031 11.3482 12.3769 7.12725 12.3769 3.4665C12.3769 3.34781 12.3724 3.22688 12.3679 3.10819C12.9085 2.71725 13.3787 2.22956 13.75 1.67606Z" fill="white"/>
</svg>
