<svg width="15" height="18" viewBox="0 0 15 18" fill="none" xmlns="http://www.w3.org/2000/svg">
<mask id="mask0_1_197" style="mask-type:alpha" maskUnits="userSpaceOnUse" x="0" y="0" width="15" height="18">
<path d="M14.4615 8.04689L1.75137 0.167957C1.40255 -0.0445905 0.944723 -0.0592489 0.588635 0.14597C0.22528 0.351189 0 0.739638 0 1.15741V16.842C0 17.2597 0.22528 17.6482 0.581368 17.8534C0.755778 17.9487 0.944723 18 1.14093 18C1.35168 18 1.55516 17.9414 1.73684 17.8314L14.447 10.0185C14.7885 9.81324 14.9993 9.43212 14.9993 9.03634C15.0138 8.63323 14.8031 8.25211 14.4615 8.04689Z" fill="white"/>
</mask>
<g mask="url(#mask0_1_197)">
<path d="M14.4615 8.04689L1.75137 0.167957C1.40255 -0.0445905 0.944723 -0.0592489 0.588635 0.14597C0.22528 0.351189 0 0.739638 0 1.15741V16.842C0 17.2597 0.22528 17.6482 0.581368 17.8534C0.755778 17.9487 0.944723 18 1.14093 18C1.35168 18 1.55516 17.9414 1.73684 17.8314L14.447 10.0185C14.7885 9.81324 14.9993 9.43212 14.9993 9.03634C15.0138 8.63323 14.8031 8.25211 14.4615 8.04689Z" fill="white"/>
</g>
</svg>
